<svg class="svg-icon" style="width: 1em; height: 1em;vertical-align: middle;fill: currentColor;overflow: hidden;" viewBox="0 0 1024 1024" version="1.1" xmlns="http://www.w3.org/2000/svg"><path d="M901.851057 926.476283a48.761858 48.761858 0 0 1-48.761858 48.761859H170.423182a48.761858 48.761858 0 0 1-48.761858-48.761859V48.762834a48.761858 48.761858 0 0 1 48.761858-48.761859h418.376745v270.628314a48.761858 48.761858 0 0 0 48.761858 48.761858H901.851057V926.476283z" fill="#EBECF0" /><path d="M901.851057 926.476283v48.761859a48.761858 48.761858 0 0 1-48.761858 48.761858H170.423182a48.761858 48.761858 0 0 1-48.761858-48.761858v-48.761859a48.761858 48.761858 0 0 0 48.761858 48.761859h682.666017a48.761858 48.761858 0 0 0 48.761858-48.761859zM901.851057 312.564487v6.82666h-264.289272a48.761858 48.761858 0 0 1-48.761858-48.761858V0.000975a48.761858 48.761858 0 0 1 34.620919 14.140939l264.289272 263.801654a48.761858 48.761858 0 0 1 14.140939 34.620919z" fill="#C1C7D0" /><path d="M292.815447 366.202531h219.428362v43.885673h-219.428362zM292.815447 497.859549h438.856725v43.885672h-438.856725zM292.815447 629.516566h438.856725v43.885673h-438.856725zM292.815447 761.173584h438.856725v43.885672h-438.856725z" fill="#1967D2" /></svg>